<svg preserveAspectRatio="xMidYMid meet" data-bbox="22.39 48.5 155.22 103" viewBox="22.39 48.5 155.22 103" xmlns="http://www.w3.org/2000/svg" data-type="shape" role="img" aria-label="Homepage"><g><path d="M100.72 49.5v73.44a1 1 0 0 1-1 1H75.61a1 1 0 0 1-1-1V49.5a1 1 0 0 1 1-1h24.11a1 1 0 0 1 1 1z"/><path d="M48.5 119.58V49.95c0-.8-.65-1.45-1.45-1.45H23.84c-.8 0-1.45.65-1.45 1.45v75.44c0 .8.65 1.45 1.45 1.45h17.41c3.2 0 5.8 2.6 5.8 5.8v17.41c0 .8.65 1.45 1.45 1.45h23.21c.8 0 1.45-.65 1.45-1.45v-23.21c0-.8-.65-1.45-1.45-1.45H54.3c-3.2 0-5.8-2.6-5.8-5.8Z"/><path d="M152.95 67.36V49.95c0-.8-.65-1.45-1.45-1.45h-23.21c-.8 0-1.45.65-1.45 1.45v23.21c0 .8.65 1.45 1.45 1.45h17.41c3.2 0 5.8 2.6 5.8 5.8v69.63c0 .8.65 1.45 1.45 1.45h23.21c.8 0 1.45-.65 1.45-1.45V74.6c0-.8-.65-1.45-1.45-1.45h-17.41c-3.2 0-5.8-2.6-5.8-5.8Z"/><path d="M128.29 126.39v24.11a1 1 0 0 1-1 1h-24.11a1 1 0 0 1-1-1v-24.11a1 1 0 0 1 1-1h24.11a1 1 0 0 1 1 1z"/></g></svg>