<svg preserveAspectRatio="xMidYMid meet" data-bbox="57 9.501 86 181.001" viewBox="57 9.501 86 181.001" xmlns="http://www.w3.org/2000/svg" data-type="color" role="presentation" aria-hidden="true" aria-label=""><defs><style>#comp-ly4tfdgm svg [data-color="1"] {fill: #FFFFFF;}</style></defs><g><path d="M141.944 57.034c-1.057-5.46-2.465-11.094-2.87-12.688a1.898 1.898 0 0 0-.883-1.175 1.87 1.87 0 0 0-1.427-.196c-.216.058-.46.146-.713.251-1.211-2.45-4.601-10.967-7.486-18.425a1.86 1.86 0 0 0-1.29-1.13 1.936 1.936 0 0 0-1.721.423c-.206.18-.379.379-.566.57l-6.58-14.204c-.316-.678-1.079-1.077-1.803-.928-2.035.387-3.522 1.452-4.417 3.169-2.829 5.415 1.479 15.815 2.272 17.631-.646 6.075.085 16.758.25 18.99a68.473 68.473 0 0 0-1.59 2.15c-1.381-5.635-5.928-10.731-6.076-10.889-1.592-2.213-3.459-3.467-5.55-3.724-2.681-.314-4.814 1.132-5.351 1.543-3.733 1.661-15.135 8.22-18.573 10.209a1.435 1.435 0 0 0-.71 1.073c-.06.454.093.899.419 1.219.321.316.652.581.983.848-1.228-.263-2.319-.308-2.823-.166-.439.122-.9.642-.9 1.094.002 5.61-.737 13.648-6.522 26.125-.404.869-1.155 2.124-2.024 3.578-4.743 7.929-13.572 22.692-6.106 37.749 4.611 9.301 6.298 17.312 6.887 22.682-4.561 1.564-6.801 4.025-6.801 7.53 0 2.823 2.022 5.073 2.151 5.211 10.124 9.865 10.072 25.037 9.581 31.1-.137 1.646 1.091 3.127 2.739 3.299 3.61.375 7.031.549 10.285.549 39.222-.002 53.172-25.477 56.674-33.828a3.528 3.528 0 0 0-.948-4.02l-23.795-20.809c.334-.44.68-.849 1.007-1.308.708-1.282 17.363-31.485 19.152-36.57.252-.729 6.162-17.909 6.162-22.327l.01-1.811c.03-3.634.06-7.066-1.047-12.795zM126.75 25.745c1.544 3.986 6.138 15.767 7.584 18.58-2.307 2.071-4.472 6.98-2.068 18.681-.623 2.21-5.45 19.275-7.877 25.213-1.659-1.872-3.953-4.786-7.564-9.599-.471-.628-.921-1.19-1.374-1.759 1.1-1.352 6.924-8.651 9.637-14.938.879-2.039 1.648-15.687.763-17.74-2.037-4.718-4.108-13.859.899-18.438zM116.543 50.28a.997.997 0 0 0 .227-.719c-.01-.128-1-12.874-.256-19.274a1.025 1.025 0 0 0-.083-.533c-1.407-3.09-4.584-12.009-2.435-16.124.557-1.069 1.439-1.74 2.691-2.047l6.884 14.857c-3.488 5.598-1.56 13.972.409 18.54.596 1.442-.018 14.419-.763 16.145-2.405 5.578-7.565 12.235-9.08 14.133-3.849-4.548-6.956-6.95-9.284-8.171 1.363-2.028 9.633-14.307 11.69-16.807zM97.081 40.2c.089-.038.175-.091.248-.152.016-.016 1.787-1.45 3.934-1.179 1.495.19 2.882 1.162 4.194 2.977.054.059 5.383 6.017 5.979 11.693.008.077.043.142.068.213-3.554 5.075-8.249 12.068-8.549 12.516a8.257 8.257 0 0 0-1.583-.373c-.136-2.195-.284-7.949.563-9.911a1.008 1.008 0 0 0-.217-1.114c-.028-.028-2.755-2.777-2.755-6.112 0-.389-.225-.743-.576-.913a1.024 1.024 0 0 0-1.077.124c-.109.085-10.66 8.352-18.047 2.003 3.512-2.029 14.484-8.32 17.818-9.772zm2.266 25.941c.001.006.004.011.004.017-8.322 4.543-13.27 9.605-16.212 14.128-.207-2.03-.432-3.7-.519-4.319 1.982-5.332 4.59-14.95.672-21.293-.146-.236-.344-.439-.536-.646 5.732 1.424 11.687-1.745 14.368-3.466.525 2.45 1.976 4.391 2.715 5.255-.923 3.134-.542 9.554-.492 10.324zm39.762 88.028c.495.435.662 1.128.411 1.725-3.653 8.716-19.126 36.797-64.866 32.046a1.045 1.045 0 0 1-.924-1.124c.517-6.349.555-22.246-10.141-32.664-.015-.017-1.494-1.695-1.569-3.66.887.333 2.185.691 3.821.85 1.82.288 4.91.657 8.802.657 10.877 0 27.965-2.905 40.776-18.547l23.69 20.717zm1.845-84.359l-.01 1.829c0 3.388-4.369 16.791-6.049 21.665-1.733 4.921-18.842 35.945-18.953 36.161-14.871 20.845-37.351 21.192-46.889 20.251.175-2.338.611-14.439-7.342-30.48-6.977-14.075 1.485-28.221 6.031-35.823.936-1.565 1.676-2.799 2.123-3.765 5.667-12.224 6.627-20.355 6.703-26.125 1.332.099 4.123.806 4.991 2.211 3.522 5.707.926 14.834-.934 19.766a.999.999 0 0 0-.056.502c.006.037.53 3.647.796 7.395-1.703 3.466-2.266 6.391-2.438 8.182-4.382-3.318-9.148-3.734-9.4-3.754a1.02 1.02 0 0 0-1.093.932 1.017 1.017 0 0 0 .938 1.087c.07.004 6.965.587 11.266 6.268 3.465 4.579 4.331 11.163 2.572 19.573a1.01 1.01 0 0 0 .998 1.217c.471 0 .894-.328.994-.806 1.884-9.002.896-16.135-2.938-21.199a17.072 17.072 0 0 0-1.368-1.573v-.004c-.005-.072-.166-3.666 2.17-8.611a.98.98 0 0 0 .361-.729c2.474-4.857 7.352-10.854 16.977-16.092.71-.063 5.782-.067 14.791 11.942 4.255 5.673 6.768 8.813 8.572 10.713a.993.993 0 0 0 .416.45c.006.003.013.003.02.006 1.833 1.844 2.92 2.334 4.546 3.066.461.207.97.437 1.562.731a1.019 1.019 0 0 0 1.365-.452 1.01 1.01 0 0 0-.455-1.357c-.618-.308-1.151-.547-1.634-.765-1.311-.59-2.234-1.014-3.673-2.393 2.532-5.648 8.128-25.626 8.376-26.516a.984.984 0 0 0 .016-.476c-3.041-14.543 1.193-17.331 2.827-17.86.443 1.748 1.793 7.181 2.811 12.441 1.07 5.529 1.042 8.862 1.01 12.392z" fill="currentColor" data-color="1"/><path d="M115.046 107.379c-26.296-1.44-31.537 25.173-31.587 25.44a1.013 1.013 0 0 0 1.004 1.193c.481 0 .91-.342 1-.83.046-.251 4.918-25.041 29.476-23.784a.993.993 0 0 0 1.069-.956 1.014 1.014 0 0 0-.962-1.063z" fill="currentColor" data-color="1"/></g></svg>