<svg preserveAspectRatio="none" data-bbox="20 20 160 160" viewBox="20 20 160 160" xmlns="http://www.w3.org/2000/svg" data-type="shape" role="presentation" aria-hidden="true" aria-label=""><g><path d="M25.707 129.542l6.675-17.143L20 98.814l12.813-13.261-6.245-17.251 16.797-7.332.969-18.436 18.304-.324 7.86-16.604 17.12 6.685L101.184 20l13.244 12.722 17.227-6.253 7.322 16.927 18.412.863.323 18.329 16.581 7.87-6.675 17.143L180 101.186l-12.813 13.261 6.245 17.251-16.904 7.332-.862 18.436-18.304.324-7.86 16.604-17.12-6.685L98.816 180l-13.244-12.722-17.227 6.253-7.322-16.819-18.412-.971-.323-18.329-16.581-7.87z"/></g></svg>